<mxfile host="app.diagrams.net" modified="2024-07-01T14:16:22.311Z" agent="Mozilla/5.0 (Windows NT 10.0; Win64; x64) AppleWebKit/537.36 (KHTML, like Gecko) Chrome/126.0.0.0 Safari/537.36" etag="xuVGo74otLprbqNnRk5H" version="24.6.4" type="device">
  <diagram name="Page-1" id="W-Eq81ZC0FUkWCRuZW7T">
    <mxGraphModel dx="1235" dy="655" grid="1" gridSize="10" guides="1" tooltips="1" connect="1" arrows="1" fold="1" page="1" pageScale="1" pageWidth="850" pageHeight="1100" math="0" shadow="0">
      <root>
        <mxCell id="0" />
        <mxCell id="1" parent="0" />
        <mxCell id="GLn6J0bqQD4jWC5fZEjC-3" value="" style="rounded=0;whiteSpace=wrap;html=1;fillColor=default;strokeColor=#FCFCFC;" parent="1" vertex="1">
          <mxGeometry x="10" y="40" width="830" height="760" as="geometry" />
        </mxCell>
        <mxCell id="GLn6J0bqQD4jWC5fZEjC-7" value="" style="rounded=0;whiteSpace=wrap;html=1;" parent="1" vertex="1">
          <mxGeometry x="135" y="70" width="595" height="690" as="geometry" />
        </mxCell>
        <mxCell id="GLn6J0bqQD4jWC5fZEjC-11" value="&lt;font style=&quot;font-size: 14px;&quot;&gt;&lt;b&gt;Administrator&lt;/b&gt;&lt;/font&gt;&lt;div style=&quot;font-size: 14px;&quot;&gt;&lt;br&gt;&lt;/div&gt;" style="shape=umlActor;verticalLabelPosition=bottom;verticalAlign=top;html=1;outlineConnect=0;strokeWidth=1;" parent="1" vertex="1">
          <mxGeometry x="40" y="324" width="50" height="133" as="geometry" />
        </mxCell>
        <mxCell id="GLn6J0bqQD4jWC5fZEjC-6" value="&lt;font style=&quot;font-size: 18px;&quot;&gt;Hostel Managment System&lt;/font&gt;" style="shape=rect;html=1;verticalAlign=top;fontStyle=1;whiteSpace=wrap;align=center;strokeColor=none;" parent="1" vertex="1">
          <mxGeometry x="335.5" y="77" width="240" height="30" as="geometry" />
        </mxCell>
        <mxCell id="mW46dZn07d5qdo2LUWgy-1" value="&lt;font style=&quot;font-size: 16px;&quot;&gt;&lt;b&gt;Login&lt;/b&gt;&lt;/font&gt;" style="ellipse;whiteSpace=wrap;html=1;strokeWidth=2;" vertex="1" parent="1">
          <mxGeometry x="240" y="130" width="110" height="30" as="geometry" />
        </mxCell>
        <mxCell id="mW46dZn07d5qdo2LUWgy-2" value="&lt;span style=&quot;font-size: 16px;&quot;&gt;&lt;b&gt;Register Member&lt;/b&gt;&lt;/span&gt;" style="ellipse;whiteSpace=wrap;html=1;strokeWidth=2;" vertex="1" parent="1">
          <mxGeometry x="230" y="164" width="129" height="45" as="geometry" />
        </mxCell>
        <mxCell id="mW46dZn07d5qdo2LUWgy-3" value="&lt;span style=&quot;font-size: 16px;&quot;&gt;&lt;b&gt;Membership managment&lt;/b&gt;&lt;/span&gt;" style="ellipse;whiteSpace=wrap;html=1;strokeWidth=2;" vertex="1" parent="1">
          <mxGeometry x="230" y="212" width="140" height="58" as="geometry" />
        </mxCell>
        <mxCell id="mW46dZn07d5qdo2LUWgy-4" value="&lt;span style=&quot;font-size: 16px;&quot;&gt;&lt;b&gt;Generate Barcode&lt;/b&gt;&lt;/span&gt;" style="ellipse;whiteSpace=wrap;html=1;strokeWidth=2;" vertex="1" parent="1">
          <mxGeometry x="244" y="275" width="110" height="45" as="geometry" />
        </mxCell>
        <mxCell id="mW46dZn07d5qdo2LUWgy-5" value="&lt;span style=&quot;font-size: 16px;&quot;&gt;&lt;b&gt;Search member&lt;/b&gt;&lt;/span&gt;&lt;div&gt;&lt;span style=&quot;font-size: 16px;&quot;&gt;&lt;b&gt;or staff&lt;/b&gt;&lt;/span&gt;&lt;/div&gt;" style="ellipse;whiteSpace=wrap;html=1;strokeWidth=2;" vertex="1" parent="1">
          <mxGeometry x="220" y="324" width="160" height="46" as="geometry" />
        </mxCell>
        <mxCell id="mW46dZn07d5qdo2LUWgy-8" value="&lt;span style=&quot;font-size: 16px;&quot;&gt;&lt;b&gt;Manage Rooms&lt;/b&gt;&lt;/span&gt;" style="ellipse;whiteSpace=wrap;html=1;strokeWidth=2;" vertex="1" parent="1">
          <mxGeometry x="227" y="375" width="155" height="45" as="geometry" />
        </mxCell>
        <mxCell id="mW46dZn07d5qdo2LUWgy-9" value="&lt;span style=&quot;font-size: 16px;&quot;&gt;&lt;b&gt;Register Staff&lt;/b&gt;&lt;/span&gt;" style="ellipse;whiteSpace=wrap;html=1;strokeWidth=2;" vertex="1" parent="1">
          <mxGeometry x="231" y="424" width="149" height="36" as="geometry" />
        </mxCell>
        <mxCell id="mW46dZn07d5qdo2LUWgy-10" value="&lt;span style=&quot;font-size: 16px;&quot;&gt;&lt;b&gt;Payment Managment&lt;/b&gt;&lt;/span&gt;" style="ellipse;whiteSpace=wrap;html=1;strokeWidth=2;" vertex="1" parent="1">
          <mxGeometry x="229" y="464" width="155" height="45" as="geometry" />
        </mxCell>
        <mxCell id="mW46dZn07d5qdo2LUWgy-11" value="&lt;span style=&quot;font-size: 16px;&quot;&gt;&lt;b&gt;Payment System&lt;/b&gt;&lt;/span&gt;" style="ellipse;whiteSpace=wrap;html=1;strokeWidth=2;" vertex="1" parent="1">
          <mxGeometry x="228" y="513" width="155" height="40" as="geometry" />
        </mxCell>
        <mxCell id="mW46dZn07d5qdo2LUWgy-12" value="&lt;span style=&quot;font-size: 16px;&quot;&gt;&lt;b&gt;Manage Mess Schedule&lt;/b&gt;&lt;/span&gt;" style="ellipse;whiteSpace=wrap;html=1;strokeWidth=2;" vertex="1" parent="1">
          <mxGeometry x="226" y="557" width="160" height="41" as="geometry" />
        </mxCell>
        <mxCell id="mW46dZn07d5qdo2LUWgy-13" value="&lt;span style=&quot;font-size: 16px;&quot;&gt;&lt;b&gt;Add Announcment&lt;/b&gt;&lt;/span&gt;" style="ellipse;whiteSpace=wrap;html=1;strokeWidth=2;" vertex="1" parent="1">
          <mxGeometry x="219" y="601" width="183" height="39" as="geometry" />
        </mxCell>
        <mxCell id="mW46dZn07d5qdo2LUWgy-14" value="&lt;span style=&quot;font-size: 16px;&quot;&gt;&lt;b&gt;Update Rooms&amp;nbsp;&lt;/b&gt;&lt;/span&gt;&lt;div&gt;&lt;span style=&quot;font-size: 16px;&quot;&gt;&lt;b&gt;or Beds&lt;/b&gt;&lt;/span&gt;&lt;/div&gt;" style="ellipse;whiteSpace=wrap;html=1;strokeWidth=2;" vertex="1" parent="1">
          <mxGeometry x="235" y="647" width="153" height="45" as="geometry" />
        </mxCell>
        <mxCell id="mW46dZn07d5qdo2LUWgy-15" value="&lt;span style=&quot;font-size: 16px;&quot;&gt;&lt;b&gt;Delete Rooms&amp;nbsp;&lt;/b&gt;&lt;/span&gt;&lt;div&gt;&lt;span style=&quot;font-size: 16px;&quot;&gt;&lt;b&gt;or Beds&lt;/b&gt;&lt;/span&gt;&lt;/div&gt;" style="ellipse;whiteSpace=wrap;html=1;strokeWidth=2;" vertex="1" parent="1">
          <mxGeometry x="232" y="703" width="153" height="45" as="geometry" />
        </mxCell>
        <mxCell id="mW46dZn07d5qdo2LUWgy-16" value="" style="edgeStyle=none;html=1;endArrow=none;verticalAlign=bottom;rounded=0;entryX=0;entryY=0.5;entryDx=0;entryDy=0;strokeWidth=2;" edge="1" parent="1" target="mW46dZn07d5qdo2LUWgy-1">
          <mxGeometry width="160" relative="1" as="geometry">
            <mxPoint x="110" y="380" as="sourcePoint" />
            <mxPoint x="251" y="370" as="targetPoint" />
          </mxGeometry>
        </mxCell>
        <mxCell id="mW46dZn07d5qdo2LUWgy-17" value="" style="edgeStyle=none;html=1;endArrow=none;verticalAlign=bottom;rounded=0;entryX=0;entryY=0.5;entryDx=0;entryDy=0;strokeWidth=2;" edge="1" parent="1">
          <mxGeometry width="160" relative="1" as="geometry">
            <mxPoint x="100" y="390" as="sourcePoint" />
            <mxPoint x="232" y="194" as="targetPoint" />
          </mxGeometry>
        </mxCell>
        <mxCell id="mW46dZn07d5qdo2LUWgy-18" value="" style="edgeStyle=none;html=1;endArrow=none;verticalAlign=bottom;rounded=0;entryX=0;entryY=0.5;entryDx=0;entryDy=0;strokeWidth=2;" edge="1" parent="1">
          <mxGeometry width="160" relative="1" as="geometry">
            <mxPoint x="100" y="390" as="sourcePoint" />
            <mxPoint x="231" y="240" as="targetPoint" />
          </mxGeometry>
        </mxCell>
        <mxCell id="mW46dZn07d5qdo2LUWgy-19" value="" style="edgeStyle=none;html=1;endArrow=none;verticalAlign=bottom;rounded=0;entryX=0;entryY=0.5;entryDx=0;entryDy=0;strokeWidth=2;" edge="1" parent="1">
          <mxGeometry width="160" relative="1" as="geometry">
            <mxPoint x="100" y="390" as="sourcePoint" />
            <mxPoint x="243" y="297" as="targetPoint" />
          </mxGeometry>
        </mxCell>
        <mxCell id="mW46dZn07d5qdo2LUWgy-20" value="" style="edgeStyle=none;html=1;endArrow=none;verticalAlign=bottom;rounded=0;entryX=0;entryY=0.5;entryDx=0;entryDy=0;strokeWidth=2;" edge="1" parent="1">
          <mxGeometry width="160" relative="1" as="geometry">
            <mxPoint x="100" y="390" as="sourcePoint" />
            <mxPoint x="220" y="346" as="targetPoint" />
          </mxGeometry>
        </mxCell>
        <mxCell id="mW46dZn07d5qdo2LUWgy-21" value="" style="edgeStyle=none;html=1;endArrow=none;verticalAlign=bottom;rounded=0;entryX=0;entryY=0.5;entryDx=0;entryDy=0;strokeWidth=2;" edge="1" parent="1" target="mW46dZn07d5qdo2LUWgy-8">
          <mxGeometry width="160" relative="1" as="geometry">
            <mxPoint x="100" y="390" as="sourcePoint" />
            <mxPoint x="272" y="234" as="targetPoint" />
          </mxGeometry>
        </mxCell>
        <mxCell id="mW46dZn07d5qdo2LUWgy-22" value="" style="edgeStyle=none;html=1;endArrow=none;verticalAlign=bottom;rounded=0;entryX=0;entryY=0.5;entryDx=0;entryDy=0;strokeWidth=2;" edge="1" parent="1" target="mW46dZn07d5qdo2LUWgy-9">
          <mxGeometry width="160" relative="1" as="geometry">
            <mxPoint x="100" y="390" as="sourcePoint" />
            <mxPoint x="282" y="244" as="targetPoint" />
          </mxGeometry>
        </mxCell>
        <mxCell id="mW46dZn07d5qdo2LUWgy-23" value="" style="edgeStyle=none;html=1;endArrow=none;verticalAlign=bottom;rounded=0;entryX=0;entryY=0.5;entryDx=0;entryDy=0;strokeWidth=2;" edge="1" parent="1" target="mW46dZn07d5qdo2LUWgy-10">
          <mxGeometry width="160" relative="1" as="geometry">
            <mxPoint x="100" y="390" as="sourcePoint" />
            <mxPoint x="292" y="254" as="targetPoint" />
          </mxGeometry>
        </mxCell>
        <mxCell id="mW46dZn07d5qdo2LUWgy-24" value="" style="edgeStyle=none;html=1;endArrow=none;verticalAlign=bottom;rounded=0;entryX=0;entryY=0.5;entryDx=0;entryDy=0;strokeWidth=2;" edge="1" parent="1" target="mW46dZn07d5qdo2LUWgy-11">
          <mxGeometry width="160" relative="1" as="geometry">
            <mxPoint x="100" y="390" as="sourcePoint" />
            <mxPoint x="302" y="264" as="targetPoint" />
          </mxGeometry>
        </mxCell>
        <mxCell id="mW46dZn07d5qdo2LUWgy-25" value="" style="edgeStyle=none;html=1;endArrow=none;verticalAlign=bottom;rounded=0;entryX=0;entryY=0.5;entryDx=0;entryDy=0;strokeWidth=2;" edge="1" parent="1" target="mW46dZn07d5qdo2LUWgy-12">
          <mxGeometry width="160" relative="1" as="geometry">
            <mxPoint x="110" y="400" as="sourcePoint" />
            <mxPoint x="312" y="274" as="targetPoint" />
          </mxGeometry>
        </mxCell>
        <mxCell id="mW46dZn07d5qdo2LUWgy-26" value="" style="edgeStyle=none;html=1;endArrow=none;verticalAlign=bottom;rounded=0;entryX=0;entryY=0.5;entryDx=0;entryDy=0;strokeWidth=2;" edge="1" parent="1" target="mW46dZn07d5qdo2LUWgy-13">
          <mxGeometry width="160" relative="1" as="geometry">
            <mxPoint x="100" y="390" as="sourcePoint" />
            <mxPoint x="322" y="284" as="targetPoint" />
          </mxGeometry>
        </mxCell>
        <mxCell id="mW46dZn07d5qdo2LUWgy-27" value="" style="edgeStyle=none;html=1;endArrow=none;verticalAlign=bottom;rounded=0;entryX=0;entryY=0.5;entryDx=0;entryDy=0;strokeWidth=2;" edge="1" parent="1" target="mW46dZn07d5qdo2LUWgy-14">
          <mxGeometry width="160" relative="1" as="geometry">
            <mxPoint x="100" y="390" as="sourcePoint" />
            <mxPoint x="332" y="294" as="targetPoint" />
          </mxGeometry>
        </mxCell>
        <mxCell id="mW46dZn07d5qdo2LUWgy-28" value="" style="edgeStyle=none;html=1;endArrow=none;verticalAlign=bottom;rounded=0;entryX=0;entryY=0.5;entryDx=0;entryDy=0;strokeWidth=2;" edge="1" parent="1" target="mW46dZn07d5qdo2LUWgy-15">
          <mxGeometry width="160" relative="1" as="geometry">
            <mxPoint x="100" y="390" as="sourcePoint" />
            <mxPoint x="342" y="304" as="targetPoint" />
          </mxGeometry>
        </mxCell>
        <mxCell id="mW46dZn07d5qdo2LUWgy-29" value="&lt;span style=&quot;font-size: 16px;&quot;&gt;&lt;b&gt;Member Details&lt;/b&gt;&lt;/span&gt;" style="ellipse;whiteSpace=wrap;html=1;strokeWidth=2;" vertex="1" parent="1">
          <mxGeometry x="396" y="338.5" width="154" height="46" as="geometry" />
        </mxCell>
        <mxCell id="mW46dZn07d5qdo2LUWgy-31" value="&lt;span style=&quot;font-size: 16px;&quot;&gt;&lt;b&gt;Complain Request&lt;/b&gt;&lt;/span&gt;" style="ellipse;whiteSpace=wrap;html=1;strokeWidth=2;" vertex="1" parent="1">
          <mxGeometry x="442" y="492" width="171" height="39" as="geometry" />
        </mxCell>
        <mxCell id="mW46dZn07d5qdo2LUWgy-32" value="&lt;span style=&quot;font-size: 16px;&quot;&gt;&lt;b&gt;Request For Resource&lt;/b&gt;&lt;/span&gt;" style="ellipse;whiteSpace=wrap;html=1;strokeWidth=2;" vertex="1" parent="1">
          <mxGeometry x="477" y="537" width="164" height="54" as="geometry" />
        </mxCell>
        <mxCell id="mW46dZn07d5qdo2LUWgy-33" value="&lt;span style=&quot;font-size: 16px;&quot;&gt;&lt;b&gt;Feedback &amp;amp; suggestion&lt;/b&gt;&lt;/span&gt;" style="ellipse;whiteSpace=wrap;html=1;strokeWidth=2;" vertex="1" parent="1">
          <mxGeometry x="535" y="594" width="170" height="58" as="geometry" />
        </mxCell>
        <mxCell id="mW46dZn07d5qdo2LUWgy-34" value="&lt;span style=&quot;font-size: 16px;&quot;&gt;&lt;b&gt;Add Visitor&lt;/b&gt;&lt;/span&gt;" style="ellipse;whiteSpace=wrap;html=1;strokeWidth=2;" vertex="1" parent="1">
          <mxGeometry x="456" y="155" width="140" height="40" as="geometry" />
        </mxCell>
        <mxCell id="mW46dZn07d5qdo2LUWgy-35" value="&lt;span style=&quot;font-size: 16px;&quot;&gt;&lt;b&gt;Manage Entries&lt;/b&gt;&lt;/span&gt;" style="ellipse;whiteSpace=wrap;html=1;strokeWidth=2;" vertex="1" parent="1">
          <mxGeometry x="530" y="194" width="156" height="42" as="geometry" />
        </mxCell>
        <mxCell id="mW46dZn07d5qdo2LUWgy-37" value="&lt;span style=&quot;font-size: 16px;&quot;&gt;&lt;b&gt;Update Details&lt;/b&gt;&lt;/span&gt;" style="ellipse;whiteSpace=wrap;html=1;strokeWidth=2;" vertex="1" parent="1">
          <mxGeometry x="575" y="242" width="144" height="39" as="geometry" />
        </mxCell>
        <mxCell id="mW46dZn07d5qdo2LUWgy-38" value="&lt;div style=&quot;font-size: 14px;&quot;&gt;&lt;b&gt;Member&lt;/b&gt;&lt;/div&gt;" style="shape=umlActor;verticalLabelPosition=bottom;verticalAlign=top;html=1;outlineConnect=0;strokeWidth=1;" vertex="1" parent="1">
          <mxGeometry x="754" y="332" width="50" height="133" as="geometry" />
        </mxCell>
        <mxCell id="mW46dZn07d5qdo2LUWgy-40" value="&lt;span style=&quot;font-size: 16px;&quot;&gt;&lt;b&gt;Request Registration&lt;/b&gt;&lt;/span&gt;" style="ellipse;whiteSpace=wrap;html=1;strokeWidth=2;" vertex="1" parent="1">
          <mxGeometry x="488" y="683" width="154" height="50" as="geometry" />
        </mxCell>
        <mxCell id="mW46dZn07d5qdo2LUWgy-44" value="&lt;div style=&quot;font-size: 14px;&quot;&gt;&lt;b&gt;Staff&lt;/b&gt;&lt;/div&gt;" style="shape=umlActor;verticalLabelPosition=bottom;verticalAlign=top;html=1;outlineConnect=0;strokeWidth=1;" vertex="1" parent="1">
          <mxGeometry x="769" y="107" width="50" height="133" as="geometry" />
        </mxCell>
        <mxCell id="mW46dZn07d5qdo2LUWgy-45" value="&lt;div style=&quot;font-size: 14px;&quot;&gt;&lt;b&gt;Guest&lt;/b&gt;&lt;/div&gt;" style="shape=umlActor;verticalLabelPosition=bottom;verticalAlign=top;html=1;outlineConnect=0;strokeWidth=1;" vertex="1" parent="1">
          <mxGeometry x="755" y="576" width="50" height="133" as="geometry" />
        </mxCell>
        <mxCell id="mW46dZn07d5qdo2LUWgy-46" value="" style="edgeStyle=none;html=1;endArrow=none;verticalAlign=bottom;rounded=0;strokeWidth=2;" edge="1" parent="1">
          <mxGeometry width="160" relative="1" as="geometry">
            <mxPoint x="350" y="144.17" as="sourcePoint" />
            <mxPoint x="770" y="150" as="targetPoint" />
          </mxGeometry>
        </mxCell>
        <mxCell id="mW46dZn07d5qdo2LUWgy-48" value="" style="edgeStyle=none;html=1;endArrow=none;verticalAlign=bottom;rounded=0;strokeWidth=2;exitX=1;exitY=0.5;exitDx=0;exitDy=0;" edge="1" parent="1" source="mW46dZn07d5qdo2LUWgy-34">
          <mxGeometry width="160" relative="1" as="geometry">
            <mxPoint x="630" y="190" as="sourcePoint" />
            <mxPoint x="770" y="150" as="targetPoint" />
          </mxGeometry>
        </mxCell>
        <mxCell id="mW46dZn07d5qdo2LUWgy-49" value="" style="edgeStyle=none;html=1;endArrow=none;verticalAlign=bottom;rounded=0;strokeWidth=2;exitX=1;exitY=0.5;exitDx=0;exitDy=0;" edge="1" parent="1" source="mW46dZn07d5qdo2LUWgy-35">
          <mxGeometry width="160" relative="1" as="geometry">
            <mxPoint x="640" y="200" as="sourcePoint" />
            <mxPoint x="770" y="150" as="targetPoint" />
          </mxGeometry>
        </mxCell>
        <mxCell id="mW46dZn07d5qdo2LUWgy-50" value="" style="edgeStyle=none;html=1;endArrow=none;verticalAlign=bottom;rounded=0;strokeWidth=2;exitX=1;exitY=0.5;exitDx=0;exitDy=0;" edge="1" parent="1" source="mW46dZn07d5qdo2LUWgy-37">
          <mxGeometry width="160" relative="1" as="geometry">
            <mxPoint x="650" y="210" as="sourcePoint" />
            <mxPoint x="770" y="150" as="targetPoint" />
          </mxGeometry>
        </mxCell>
        <mxCell id="mW46dZn07d5qdo2LUWgy-51" value="" style="edgeStyle=none;html=1;endArrow=none;verticalAlign=bottom;rounded=0;strokeWidth=2;entryX=0;entryY=0.3333333333333333;entryDx=0;entryDy=0;entryPerimeter=0;" edge="1" parent="1" source="mW46dZn07d5qdo2LUWgy-37" target="mW46dZn07d5qdo2LUWgy-38">
          <mxGeometry width="160" relative="1" as="geometry">
            <mxPoint x="660" y="343" as="sourcePoint" />
            <mxPoint x="800" y="303" as="targetPoint" />
          </mxGeometry>
        </mxCell>
        <mxCell id="mW46dZn07d5qdo2LUWgy-52" value="&lt;span style=&quot;font-size: 16px;&quot;&gt;&lt;b&gt;Show Notification&lt;/b&gt;&lt;/span&gt;" style="ellipse;whiteSpace=wrap;html=1;strokeWidth=2;" vertex="1" parent="1">
          <mxGeometry x="444" y="389.5" width="171" height="45" as="geometry" />
        </mxCell>
        <mxCell id="mW46dZn07d5qdo2LUWgy-53" value="&lt;span style=&quot;font-size: 16px;&quot;&gt;&lt;b&gt;Search By Barcode&lt;/b&gt;&lt;/span&gt;" style="ellipse;whiteSpace=wrap;html=1;strokeWidth=2;" vertex="1" parent="1">
          <mxGeometry x="459" y="286" width="146" height="45" as="geometry" />
        </mxCell>
        <mxCell id="mW46dZn07d5qdo2LUWgy-56" value="&lt;font style=&quot;font-size: 14px;&quot;&gt;&amp;lt;&amp;lt;include&amp;gt;&amp;gt;&lt;/font&gt;" style="edgeStyle=none;html=1;endArrow=open;verticalAlign=bottom;dashed=1;labelBackgroundColor=none;rounded=0;exitX=0.98;exitY=0.342;exitDx=0;exitDy=0;exitPerimeter=0;entryX=0;entryY=0.5;entryDx=0;entryDy=0;strokeWidth=2;" edge="1" parent="1" source="mW46dZn07d5qdo2LUWgy-4" target="mW46dZn07d5qdo2LUWgy-53">
          <mxGeometry width="160" relative="1" as="geometry">
            <mxPoint x="340" y="300" as="sourcePoint" />
            <mxPoint x="500" y="300" as="targetPoint" />
          </mxGeometry>
        </mxCell>
        <mxCell id="mW46dZn07d5qdo2LUWgy-57" value="" style="edgeStyle=none;html=1;endArrow=none;verticalAlign=bottom;rounded=0;strokeWidth=2;exitX=1;exitY=0.5;exitDx=0;exitDy=0;entryX=0;entryY=0.3333333333333333;entryDx=0;entryDy=0;entryPerimeter=0;" edge="1" parent="1" source="mW46dZn07d5qdo2LUWgy-1" target="mW46dZn07d5qdo2LUWgy-38">
          <mxGeometry width="160" relative="1" as="geometry">
            <mxPoint x="679" y="320" as="sourcePoint" />
            <mxPoint x="750" y="370" as="targetPoint" />
          </mxGeometry>
        </mxCell>
        <mxCell id="mW46dZn07d5qdo2LUWgy-58" value="" style="edgeStyle=none;html=1;endArrow=none;verticalAlign=bottom;rounded=0;strokeWidth=2;entryX=0;entryY=0.3333333333333333;entryDx=0;entryDy=0;entryPerimeter=0;exitX=1;exitY=0.5;exitDx=0;exitDy=0;" edge="1" parent="1" source="mW46dZn07d5qdo2LUWgy-29" target="mW46dZn07d5qdo2LUWgy-38">
          <mxGeometry width="160" relative="1" as="geometry">
            <mxPoint x="620" y="331" as="sourcePoint" />
            <mxPoint x="709" y="427" as="targetPoint" />
          </mxGeometry>
        </mxCell>
        <mxCell id="mW46dZn07d5qdo2LUWgy-59" value="" style="edgeStyle=none;html=1;endArrow=none;verticalAlign=bottom;rounded=0;strokeWidth=2;entryX=0;entryY=0.3333333333333333;entryDx=0;entryDy=0;entryPerimeter=0;exitX=0.975;exitY=0.318;exitDx=0;exitDy=0;exitPerimeter=0;" edge="1" parent="1" source="mW46dZn07d5qdo2LUWgy-11" target="mW46dZn07d5qdo2LUWgy-38">
          <mxGeometry width="160" relative="1" as="geometry">
            <mxPoint x="560" y="372" as="sourcePoint" />
            <mxPoint x="764" y="386" as="targetPoint" />
          </mxGeometry>
        </mxCell>
        <mxCell id="mW46dZn07d5qdo2LUWgy-60" value="" style="edgeStyle=none;html=1;endArrow=none;verticalAlign=bottom;rounded=0;strokeWidth=2;exitX=1;exitY=0.5;exitDx=0;exitDy=0;" edge="1" parent="1" source="mW46dZn07d5qdo2LUWgy-52">
          <mxGeometry width="160" relative="1" as="geometry">
            <mxPoint x="570" y="388" as="sourcePoint" />
            <mxPoint x="750" y="376" as="targetPoint" />
          </mxGeometry>
        </mxCell>
        <mxCell id="mW46dZn07d5qdo2LUWgy-61" value="" style="edgeStyle=none;html=1;endArrow=none;verticalAlign=bottom;rounded=0;strokeWidth=2;exitX=1;exitY=0.5;exitDx=0;exitDy=0;" edge="1" parent="1" source="mW46dZn07d5qdo2LUWgy-31">
          <mxGeometry width="160" relative="1" as="geometry">
            <mxPoint x="597.4390000000003" y="507.37099999999987" as="sourcePoint" />
            <mxPoint x="750" y="378" as="targetPoint" />
          </mxGeometry>
        </mxCell>
        <mxCell id="mW46dZn07d5qdo2LUWgy-62" value="" style="edgeStyle=none;html=1;endArrow=none;verticalAlign=bottom;rounded=0;strokeWidth=2;exitX=0.975;exitY=0.345;exitDx=0;exitDy=0;exitPerimeter=0;" edge="1" parent="1" source="mW46dZn07d5qdo2LUWgy-32">
          <mxGeometry width="160" relative="1" as="geometry">
            <mxPoint x="638.1120000000001" y="556.6020000000001" as="sourcePoint" />
            <mxPoint x="753" y="377" as="targetPoint" />
          </mxGeometry>
        </mxCell>
        <mxCell id="mW46dZn07d5qdo2LUWgy-63" value="" style="edgeStyle=none;html=1;endArrow=none;verticalAlign=bottom;rounded=0;strokeWidth=2;exitX=1;exitY=0;exitDx=0;exitDy=0;" edge="1" parent="1" source="mW46dZn07d5qdo2LUWgy-33">
          <mxGeometry width="160" relative="1" as="geometry">
            <mxPoint x="683.7988508968697" y="600.73371636771" as="sourcePoint" />
            <mxPoint x="753" y="378" as="targetPoint" />
          </mxGeometry>
        </mxCell>
        <mxCell id="mW46dZn07d5qdo2LUWgy-64" value="" style="edgeStyle=none;html=1;endArrow=none;verticalAlign=bottom;rounded=0;strokeWidth=2;exitX=1;exitY=0.5;exitDx=0;exitDy=0;entryX=0;entryY=0.3333333333333333;entryDx=0;entryDy=0;entryPerimeter=0;" edge="1" parent="1" source="mW46dZn07d5qdo2LUWgy-40" target="mW46dZn07d5qdo2LUWgy-45">
          <mxGeometry width="160" relative="1" as="geometry">
            <mxPoint x="658" y="703" as="sourcePoint" />
            <mxPoint x="730" y="478" as="targetPoint" />
          </mxGeometry>
        </mxCell>
      </root>
    </mxGraphModel>
  </diagram>
</mxfile>
